P2
5 5
255 
  0  50 100 150 200
 50 100 150 200 250
100 150 200 250 255
150 200 250 255 200
200 250 255 200 150
